<svg width="562" height="186" viewBox="0 0 562 186" fill="none" xmlns="http://www.w3.org/2000/svg">
<rect x="139" y="13" width="423" height="173" rx="36" fill="#D9D9D9"/>
<rect x="139" y="13" width="423" height="173" rx="36" fill="#7B83D2"/>
<path d="M223.891 146.8C220.371 146.8 216.851 146.56 213.331 146.08C209.811 145.6 206.611 144.76 203.731 143.56C200.851 142.28 198.531 140.52 196.771 138.28C195.091 135.96 194.251 132.96 194.251 129.28V62.68H215.611V96.16L212.011 89.44C213.371 87.36 215.171 85.8 217.411 84.76C219.651 83.64 221.891 82.88 224.131 82.48C226.451 82.08 228.331 81.88 229.771 81.88C238.571 81.88 245.331 84.6 250.051 90.04C254.851 95.4 257.251 103.52 257.251 114.4C257.251 120.16 256.491 125.12 254.971 129.28C253.531 133.36 251.371 136.68 248.491 139.24C245.611 141.8 242.091 143.72 237.931 145C233.851 146.2 229.171 146.8 223.891 146.8ZM223.891 128.92C226.451 128.92 228.611 128.44 230.371 127.48C232.131 126.44 233.451 124.96 234.331 123.04C235.211 121.12 235.651 118.76 235.651 115.96C235.651 111.32 235.051 107.8 233.851 105.4C232.731 102.92 231.251 101.24 229.411 100.36C227.571 99.4 225.611 98.92 223.531 98.92C222.331 98.92 220.971 99.08 219.451 99.4C218.011 99.64 216.731 100.08 215.611 100.72V123.52C215.611 124.8 215.891 125.84 216.451 126.64C217.091 127.44 218.011 128.04 219.211 128.44C220.491 128.76 222.051 128.92 223.891 128.92ZM268.319 145V85.12H290.159L290.399 145H268.319ZM268.079 76.72V61H290.399V76.72H268.079ZM334.519 82C340.119 82 345.159 82.56 349.639 83.68C354.119 84.8 357.639 86.68 360.199 89.32C362.839 91.88 364.159 95.48 364.159 100.12V167.2H342.799V132.52L346.399 139.24C344.639 141.96 342.519 143.84 340.039 144.88C337.639 145.92 335.359 146.48 333.199 146.56C331.119 146.72 329.599 146.8 328.639 146.8C319.919 146.8 313.159 144.16 308.359 138.88C303.559 133.52 301.159 125.72 301.159 115.48C301.159 109.48 301.879 104.36 303.319 100.12C304.839 95.8 307.039 92.32 309.919 89.68C312.799 87.04 316.279 85.12 320.359 83.92C324.519 82.64 329.239 82 334.519 82ZM334.519 99.88C331.959 99.88 329.799 100.4 328.039 101.44C326.279 102.48 324.959 104.04 324.079 106.12C323.199 108.12 322.759 110.72 322.759 113.92C322.759 118.16 323.319 121.44 324.439 123.76C325.639 126 327.159 127.56 328.999 128.44C330.839 129.32 332.799 129.76 334.879 129.76C336.079 129.76 337.439 129.6 338.959 129.28C340.479 128.96 341.759 128.52 342.799 127.96V105.04C342.799 103.84 342.439 102.88 341.719 102.16C341.079 101.36 340.119 100.8 338.839 100.48C337.639 100.08 336.199 99.88 334.519 99.88ZM408.707 146.8C402.867 146.8 397.667 145.96 393.107 144.28C388.627 142.52 385.067 139.8 382.427 136.12C379.867 132.36 378.587 127.44 378.587 121.36V83.92H400.427V120.04C400.427 122.92 401.067 125.12 402.347 126.64C403.707 128.08 405.867 128.8 408.827 128.8C411.867 128.8 414.027 128.08 415.307 126.64C416.587 125.12 417.227 122.92 417.227 120.04V83.92H437.507V121.36C437.507 130.4 434.907 136.92 429.707 140.92C424.507 144.84 417.507 146.8 408.707 146.8ZM480.626 146.8C474.306 146.8 468.706 145.52 463.826 142.96C458.946 140.4 455.146 136.8 452.426 132.16C449.706 127.44 448.346 121.96 448.346 115.72C448.346 105 451.066 96.64 456.506 90.64C462.026 84.56 469.986 81.52 480.386 81.52C487.186 81.52 492.706 82.96 496.946 85.84C501.186 88.72 504.306 93.08 506.306 98.92C508.386 104.68 509.386 111.88 509.306 120.52H463.826L460.946 107.68H490.586L488.306 115.12C488.226 108.48 487.506 103.92 486.146 101.44C484.866 98.88 482.586 97.6 479.306 97.6C477.786 97.6 476.306 98.12 474.866 99.16C473.426 100.12 472.266 101.72 471.386 103.96C470.506 106.12 470.066 109.04 470.066 112.72C470.066 117.92 471.306 121.92 473.786 124.72C476.266 127.52 480.506 128.92 486.506 128.92C488.506 128.92 490.546 128.64 492.626 128.08C494.706 127.52 496.666 126.92 498.506 126.28C500.346 125.56 501.866 125.04 503.066 124.72V142.84C500.266 143.88 497.066 144.8 493.466 145.6C489.866 146.4 485.586 146.8 480.626 146.8Z" fill="white"/>
<path d="M507.529 77.3644L503.122 65.411C504.43 61.9444 506.186 59.5563 508.389 58.2467C510.592 56.9371 513.064 56.2243 515.807 56.1084C518.517 55.9049 521.324 55.9641 524.228 56.286C527.1 56.5204 529.907 56.5796 532.65 56.4637C535.36 56.2602 537.817 55.5036 540.02 54.194C542.223 52.8844 543.934 50.5124 545.155 47.0781L549.562 59.0315C548.342 62.4658 546.63 64.8377 544.427 66.1474C542.224 67.457 539.767 68.2136 537.057 68.4171C534.314 68.533 531.507 68.4738 528.636 68.2394C525.732 67.9175 522.924 67.8583 520.214 68.0618C517.472 68.1777 514.999 68.8905 512.796 70.2001C510.593 71.5097 508.837 73.8978 507.529 77.3644Z" fill="white"/>
<rect y="13" width="128" height="173" rx="36" fill="#E9AFAA"/>
<path d="M67.1324 148.75C50.5324 148.75 38.2324 145.65 30.2324 139.45C22.2324 133.25 18.2324 123.15 18.2324 109.15V44.95H49.7324V107.35C49.7324 113.75 50.9324 118.5 53.3324 121.6C55.7324 124.7 59.7824 126.25 65.4824 126.25C70.3824 126.25 74.2324 124.7 77.0324 121.6C79.8324 118.5 81.2324 113.75 81.2324 107.35V44.95H109.732V109.15C109.732 118.45 107.882 126.05 104.182 131.95C100.482 137.75 95.4324 142 89.0324 144.7C82.6324 147.4 75.3324 148.75 67.1324 148.75Z" fill="white"/>
<rect x="25" y="158" width="79" height="7" fill="white"/>
</svg>
